<svg width="28" height="28" viewBox="0 0 28 28" fill="none" xmlns="http://www.w3.org/2000/svg">
<g filter="url(#filter0_d_0_497)">
<path d="M22.6818 12.5344C22.1028 14.3757 20.8142 16.6577 18.2917 18.0103C16.7282 18.8487 15.0306 19.1833 13.3831 19.071L13.4257 0.942909C13.4778 0.938618 13.5301 0.93472 13.5825 0.931229C14.0681 0.927688 14.6665 0.949319 15.28 1.01902C15.5536 1.05012 15.8247 1.0902 16.0863 1.1403C16.6587 1.27589 17.2174 1.46652 17.754 1.70967C19.5103 2.50552 21.0281 3.86323 22.0099 5.69434C22.8203 7.2056 23.1598 8.84194 23.0803 10.437C23.0472 10.9746 22.9268 11.7156 22.6818 12.5344ZM12.4254 1.07488L12.3834 18.947C9.74393 18.4708 7.34092 16.838 5.97576 14.292C3.60158 9.86431 5.2663 4.35026 9.694 1.97607C10.2671 1.66878 11.2463 1.28822 12.4254 1.07488Z" stroke="url(#paint0_linear_0_497)" shape-rendering="crispEdges"/>
</g>
<defs>
<filter id="filter0_d_0_497" x="0.394043" y="0.394409" width="27.1975" height="27.1976" filterUnits="userSpaceOnUse" color-interpolation-filters="sRGB">
<feFlood flood-opacity="0" result="BackgroundImageFix"/>
<feColorMatrix in="SourceAlpha" type="matrix" values="0 0 0 0 0 0 0 0 0 0 0 0 0 0 0 0 0 0 127 0" result="hardAlpha"/>
<feOffset dy="4"/>
<feGaussianBlur stdDeviation="2"/>
<feComposite in2="hardAlpha" operator="out"/>
<feColorMatrix type="matrix" values="0 0 0 0 0 0 0 0 0 0 0 0 0 0 0 0 0 0 0.25 0"/>
<feBlend mode="normal" in2="BackgroundImageFix" result="effect1_dropShadow_0_497"/>
<feBlend mode="normal" in="SourceGraphic" in2="effect1_dropShadow_0_497" result="shape"/>
</filter>
<linearGradient id="paint0_linear_0_497" x1="4.75599" y1="8.7235" x2="24.9646" y2="9.99221" gradientUnits="userSpaceOnUse">
<stop offset="0.288448" stop-color="#555248"/>
<stop offset="0.780176" stop-color="#1B1A17" stop-opacity="0"/>
</linearGradient>
</defs>
</svg>
